HIERARCHY
ROOT Hips
{
	OFFSET -14.64140 90.27770 -84.91600
	CHANNELS 6 Xposition Yposition Zposition Zrotation Xrotation Yrotation
	JOINT Spine
	{
		OFFSET 0.00000 13.20850 -1.60436
		CHANNELS 3 Zrotation Xrotation Yrotation
		JOINT Spine1
		{
			OFFSET 0.00000 8.61716 0.00000
			CHANNELS 3 Zrotation Xrotation Yrotation
			JOINT Spine2
			{
				OFFSET 0.00000 8.61717 0.00000
				CHANNELS 3 Zrotation Xrotation Yrotation
				JOINT Spine3
				{
					OFFSET 0.00000 8.61717 0.00000
					CHANNELS 3 Zrotation Xrotation Yrotation
					JOINT Neck
					{
						OFFSET 0.00000 11.07920 1.10792
						CHANNELS 3 Zrotation Xrotation Yrotation
						JOINT Neck1
						{
							OFFSET 0.00000 7.08032 0.00000
							CHANNELS 3 Zrotation Xrotation Yrotation
							JOINT Head
							{
								OFFSET 0.00000 7.08031 0.00000
								CHANNELS 3 Zrotation Xrotation Yrotation
								End site
								{
									OFFSET 0.00000 0.00000 0.00000
								}
							}
						}
					}
					JOINT RightShoulder
					{
						OFFSET -0.01000 7.91373 5.19711
						CHANNELS 3 Zrotation Xrotation Yrotation
						JOINT RightArm
						{
							OFFSET -18.41580 0.00000 0.00000
							CHANNELS 3 Zrotation Xrotation Yrotation
							JOINT RightForeArm
							{
								OFFSET -29.11090 0.00000 0.00000
								CHANNELS 3 Zrotation Xrotation Yrotation
								JOINT RightHand
								{
									OFFSET -24.65040 0.00000 0.00000
									CHANNELS 3 Zrotation Xrotation Yrotation
									JOINT RightHandThumb1
									{
										OFFSET -5.35114 -0.85590 3.97906
										CHANNELS 3 Zrotation Xrotation Yrotation
										JOINT RightHandThumb2
										{
											OFFSET -4.52789 0.00000 0.00000
											CHANNELS 3 Zrotation Xrotation Yrotation
											JOINT RightHandThumb3
											{
												OFFSET -2.46976 0.00000 0.00000
												CHANNELS 3 Zrotation Xrotation Yrotation
												End site
												{
													OFFSET 0.00000 0.00000 0.00000
												}
											}
										}
									}
									JOINT RightHandIndex1
									{
										OFFSET -14.26970 0.00000 2.88139
										CHANNELS 3 Zrotation Xrotation Yrotation
										JOINT RightHandIndex2
										{
											OFFSET -5.48836 0.00000 0.00000
											CHANNELS 3 Zrotation Xrotation Yrotation
											JOINT RightHandIndex3
											{
												OFFSET -3.01859 0.00000 0.00000
												CHANNELS 3 Zrotation Xrotation Yrotation
												End site
												{
													OFFSET 0.00000 0.00000 0.00000
												}
											}
										}
									}
									JOINT RightHandMiddle1
									{
										OFFSET -14.26970 0.00000 -0.09147
										CHANNELS 3 Zrotation Xrotation Yrotation
										JOINT RightHandMiddle2
										{
											OFFSET -6.17441 0.00000 0.00000
											CHANNELS 3 Zrotation Xrotation Yrotation
											JOINT RightHandMiddle3
											{
												OFFSET -3.56743 0.00000 0.00000
												CHANNELS 3 Zrotation Xrotation Yrotation
												End site
												{
													OFFSET 0.00000 0.00000 0.00000
												}
											}
										}
									}
									JOINT RightHandRing1
									{
										OFFSET -12.69180 0.00000 -3.06433
										CHANNELS 3 Zrotation Xrotation Yrotation
										JOINT RightHandRing2
										{
											OFFSET -5.62556 0.00000 0.00000
											CHANNELS 3 Zrotation Xrotation Yrotation
											JOINT RightHandRing3
											{
												OFFSET -3.56744 0.00000 0.00000
												CHANNELS 3 Zrotation Xrotation Yrotation
												End site
												{
													OFFSET 0.00000 0.00000 0.00000
												}
											}
										}
									}
									JOINT RightHandPinky1
									{
										OFFSET -11.11390 0.00000 -6.03719
										CHANNELS 3 Zrotation Xrotation Yrotation
										JOINT RightHandPinky2
										{
											OFFSET -4.52789 0.00000 0.00000
											CHANNELS 3 Zrotation Xrotation Yrotation
											JOINT RightHandPinky3
											{
												OFFSET -2.46976 0.00000 0.00000
												CHANNELS 3 Zrotation Xrotation Yrotation
												End site
												{
													OFFSET 0.00000 0.00000 0.00000
												}
											}
										}
									}
								}
							}
						}
					}
					JOINT LeftShoulder
					{
						OFFSET 0.01000 7.91373 5.19711
						CHANNELS 3 Zrotation Xrotation Yrotation
						JOINT LeftArm
						{
							OFFSET 18.41580 0.00000 0.00000
							CHANNELS 3 Zrotation Xrotation Yrotation
							JOINT LeftForeArm
							{
								OFFSET 29.11090 0.00000 0.00000
								CHANNELS 3 Zrotation Xrotation Yrotation
								JOINT LeftHand
								{
									OFFSET 24.65040 0.00000 0.00000
									CHANNELS 3 Zrotation Xrotation Yrotation
									JOINT LeftHandThumb1
									{
										OFFSET 5.35114 -0.85590 3.97906
										CHANNELS 3 Zrotation Xrotation Yrotation
										JOINT LeftHandThumb2
										{
											OFFSET 4.52789 0.00000 0.00000
											CHANNELS 3 Zrotation Xrotation Yrotation
											JOINT LeftHandThumb3
											{
												OFFSET 2.46977 0.00000 0.00000
												CHANNELS 3 Zrotation Xrotation Yrotation
												End site
												{
													OFFSET 0.00000 0.00000 0.00000
												}
											}
										}
									}
									JOINT LeftHandIndex1
									{
										OFFSET 14.26970 0.00000 2.88139
										CHANNELS 3 Zrotation Xrotation Yrotation
										JOINT LeftHandIndex2
										{
											OFFSET 5.48836 0.00000 0.00000
											CHANNELS 3 Zrotation Xrotation Yrotation
											JOINT LeftHandIndex3
											{
												OFFSET 3.01859 0.00000 0.00000
												CHANNELS 3 Zrotation Xrotation Yrotation
												End site
												{
													OFFSET 0.00000 0.00000 0.00000
												}
											}
										}
									}
									JOINT LeftHandMiddle1
									{
										OFFSET 14.26970 0.00000 -0.09147
										CHANNELS 3 Zrotation Xrotation Yrotation
										JOINT LeftHandMiddle2
										{
											OFFSET 6.17440 0.00000 0.00000
											CHANNELS 3 Zrotation Xrotation Yrotation
											JOINT LeftHandMiddle3
											{
												OFFSET 3.56744 0.00000 0.00000
												CHANNELS 3 Zrotation Xrotation Yrotation
												End site
												{
													OFFSET 0.00000 0.00000 0.00000
												}
											}
										}
									}
									JOINT LeftHandRing1
									{
										OFFSET 12.69180 0.00000 -3.06433
										CHANNELS 3 Zrotation Xrotation Yrotation
										JOINT LeftHandRing2
										{
											OFFSET 5.62556 0.00000 0.00000
											CHANNELS 3 Zrotation Xrotation Yrotation
											JOINT LeftHandRing3
											{
												OFFSET 3.56744 0.00000 0.00000
												CHANNELS 3 Zrotation Xrotation Yrotation
												End site
												{
													OFFSET 0.00000 0.00000 0.00000
												}
											}
										}
									}
									JOINT LeftHandPinky1
									{
										OFFSET 11.11390 0.00000 -6.03719
										CHANNELS 3 Zrotation Xrotation Yrotation
										JOINT LeftHandPinky2
										{
											OFFSET 4.52789 0.00000 0.00000
											CHANNELS 3 Zrotation Xrotation Yrotation
											JOINT LeftHandPinky3
											{
												OFFSET 2.46976 0.00000 0.00000
												CHANNELS 3 Zrotation Xrotation Yrotation
												End site
												{
													OFFSET 0.00000 0.00000 0.00000
												}
											}
										}
									}
								}
							}
						}
					}
					JOINT pCube4
					{
						OFFSET 0.00000 10.91090 1.10792
						CHANNELS 3 Zrotation Xrotation Yrotation
						End site
						{
							OFFSET 0.00000 0.00000 0.00000
						}
					}
				}
			}
		}
	}
	JOINT RightUpLeg
	{
		OFFSET -9.98441 0.00000 0.00000
		CHANNELS 3 Zrotation Xrotation Yrotation
		JOINT RightLeg
		{
			OFFSET 0.00000 -42.11790 0.00000
			CHANNELS 3 Zrotation Xrotation Yrotation
			JOINT RightFoot
			{
				OFFSET 0.00000 -45.00020 -0.00001
				CHANNELS 3 Zrotation Xrotation Yrotation
				JOINT RightForeFoot
				{
					OFFSET 0.00000 -3.74820 0.00000
					CHANNELS 3 Zrotation Xrotation Yrotation
					JOINT RightToeBase
					{
						OFFSET 0.00000 0.06325 14.43120
						CHANNELS 3 Zrotation Xrotation Yrotation
						End site
						{
							OFFSET 0.00000 0.00000 0.00000
						}
					}
				}
			}
		}
	}
	JOINT LeftUpLeg
	{
		OFFSET 9.98441 0.00000 0.00000
		CHANNELS 3 Zrotation Xrotation Yrotation
		JOINT LeftLeg
		{
			OFFSET 0.00000 -42.11800 0.00000
			CHANNELS 3 Zrotation Xrotation Yrotation
			JOINT LeftFoot
			{
				OFFSET 0.00000 -45.00070 0.00000
				CHANNELS 3 Zrotation Xrotation Yrotation
				JOINT LeftForeFoot
				{
					OFFSET 0.00000 -3.74824 0.00000
					CHANNELS 3 Zrotation Xrotation Yrotation
					JOINT LeftToeBase
					{
						OFFSET 0.00000 0.06325 14.43110
						CHANNELS 3 Zrotation Xrotation Yrotation
						End site
						{
							OFFSET 0.00000 0.00000 0.00000
						}
					}
				}
			}
		}
	}
}
MOTION
Frames: 4
Frame Time: 0.050000
0.01941140577043555 0.03597569432317365 -0.030374094211063143 0.021403474227926777 0.028330238612466987 0.0021062653804131454 -2.1478439093211747 3.9302239224001423 -0.9739852566186957 -0.950103557491746 3.8319673263463447 0.3780609320141656 -1.009673978696502 -0.32613664284773236 -1.1022346463976418 0.6722397766226273 0.38711137103405346 -0.8795829802124798 -0.1472069978823587 11.01126056075841 -1.013406621746162 -0.06849603378347667 -1.0122336915895425 -3.612150268383048 0.3833454988132769 -15.805631920333665 -0.3176127557479108 0.3633879715525266 0.5031621768759491 -14.888227483338996 66.1141623006365 1.2520532430236047 9.05960991993801 30.734587782394257 -1.9025323161689018 93.78616205082204 13.636615367990851 -0.325268636243999 -4.403922311699968 4.543532037737506 -0.12741569217702584 -1.5566041287741879 -0.047526613779782435 0.00772629460815961 -56.24015512896592 -0.02714308329791269 0.023497358110678667 -56.18551027726771 -38.78881215028927 0.04681019104003743 -0.013382564527831039 0.020411118622141573 0.017266989844598304 -0.04562273852171158 -0.024423799608023766 -0.01242254104151307 0.03611068654797971 -36.70404732737635 -0.028528326299046666 0.032600654141511635 -0.008712417018179321 -0.036334068115737146 -0.006809208473944729 -0.020955367292867937 0.00038364343179819434 -0.025572093585811754 -19.71585695884319 -0.01405410491163649 -0.0415983169682437 0.02167838628595499 -0.0343685939443062 -0.009395167854226852 0.04546149840347067 0.009650203754206192 0.011752942598902848 24.091269334592763 0.04022783584608007 -0.03502650428941636 28.84200422262529 -0.010375603418027627 0.00880805552185745 28.84188185307011 0.014122868087387906 0.04977339828130664 1.0794495503873767 0.6628494128226139 12.724866926619493 -61.69330106615357 26.69653726921867 -17.143564498039357 -6.331248405816806 6.832962887678248 -75.94902372967438 -13.213883819572478 3.8684519264567276 -1.8337880600320648 -0.4717049480132074 0.11268362529096532 -8.10531155341095 -0.021672717993407125 -0.03777189020767663 44.59118188900596 0.030562667720364745 0.042935074535842895 44.54569467506157 12.422718703595752 -0.04407358013406969 -0.027721471435819725 -0.032449659140691374 -0.04526427373617726 -0.012766913492881516 0.04750731489955508 0.01381702260342032 0.014071343898769916 11.101843988761079 0.043153112141501554 -0.006986717796736312 0.033411909655836264 0.03954280491269484 0.017966580830717362 0.0027862928402237093 0.048698128823718934 0.005267972610920055 4.746515014841873 -0.023173895901897792 -0.04837026994763009 0.020817334630230104 -0.0432743360773422 0.009077523409514301 0.030060672117629673 0.016130387186301786 -0.002776489614112667 -5.558439025877507 0.04022429452823169 0.045158637377869654 -6.7369817295415295 -0.0025849880087577895 -0.043059142145176366 -6.735310123407657 -0.03494844183277965 0.023551455015715952 0.01680436274516601 0.014406678849640902 0.04395667306465586 8.013024721482672 3.4905096317509297 -19.177074461029104 -0.03563908990229817 10.41335935795731 0.026295250128559364 -5.6093163083346385 -15.638837513253172 3.2041974224470278 0.009481876127119973 0.004692455051040915 -0.026906563261844905 0.005151668064546168 4.660412296320992 0.005714266071665589 12.419289534819981 -8.248076607849422 6.910489752307132 -0.027862960450213074 46.35702272382571 -0.00022660731810528515 -4.315773023039891 -14.770792958283769 -3.8463594094204265 -0.02462223481598599 -0.030173377269531634 -0.01954254622442668 -0.007636606293758617 -10.716921245582297 -0.024851604603933698 
-0.015750391515903656 0.032921845800149056 -0.013634560450197127 0.03331029507840604 0.02256737925473047 -0.029044458818893826 -2.1545583122829357 3.9475732237254078 -1.022335755151227 -0.9503278348146373 3.8559291961087463 0.43385410048274275 -0.9396602962092215 -0.3664562351582101 -0.9835645582640465 0.6136207096310801 0.36769399331923436 -0.8563244434677408 -0.25109248487086094 11.077393093981131 -0.8378276661269553 -0.04363281080499096 -0.9801005885974247 -3.3748199660552105 0.319619059098743 -15.883781633241062 -0.27588847380203874 0.4407455115636226 0.45119537022744094 -14.531843830633878 65.51249495201638 3.399851799681575 10.862080411191704 31.179056777450413 -2.4238609949738494 92.95521014317453 15.120238448267571 -0.2800520832933605 -4.953566513811306 4.518598465715864 -0.10384382774929654 -1.6385743438431097 0.03823642123683848 -0.013194750656327326 -56.21847589779046 -0.006147925174803194 0.013002724762472676 -56.26765784529975 -38.74146667031658 0.019401075581942966 -0.00564731866026634 0.013952005202199524 -0.009477644221783028 -0.013831455319663621 0.010280096386800167 0.029003164282629213 -0.002207553390775405 -36.70907450840631 -0.001101015554100545 0.004782696208296101 0.003449993699696747 0.0402907768933238 0.014310209595413619 0.02190556362405418 -0.006249984635851384 -0.009732933129304745 -19.742303335699482 -0.04216029648702502 0.04602867822750225 0.0023837676224391815 0.027858897070292172 -0.02359235606331226 0.04123354240935738 -0.0416723551662142 -0.029231079724558625 24.006284542730963 0.0015675396271847611 -0.036328559282233885 28.890049925002078 0.012312868191942052 -0.02725627120456081 28.851506579668378 -0.026373502145577963 0.03709109098533645 1.3200391686859623 0.752423444585987 12.75435268930245 -60.65221619513043 26.76590215632503 -19.556483561878746 -4.554966474986233 5.1228522736213415 -77.16288755000807 -13.766984535572314 4.305306494404938 -2.3589301231284656 -0.4506914107396295 0.08177674086709703 -8.10292858545937 0.03651548972993077 0.02389488280727869 44.572036588847254 0.03285099659231076 -0.04118870580092775 44.56952829707257 12.488835087097478 -0.0022946978311818617 0.0010640934143522295 -0.043723328256560015 -0.007555996624721295 -0.0013424428510505119 0.0354309930243432 -0.02289791328301864 -0.011217384808678841 11.081199681590574 -0.010614098902223036 -0.011990563021689037 0.03734664481757833 0.0216741140222417 0.047534744135384846 0.025849667022180375 0.011755244998584172 -0.045428407296494035 4.754869365677554 0.03371436896916688 0.03838581370072195 -0.013915829565164664 0.034851858321925826 -0.01392037146421885 -0.021907747189001982 -0.007102846830120933 -0.007380585305877863 -5.6094344560052605 -0.011689414173646896 0.0009790725718374048 -6.679297810011272 0.0009937260820394131 -0.025009466350345327 -6.681741521206775 -0.03202004065733566 0.02387386982312312 -0.004722487127562983 0.0017797764823141193 -0.041319951401321706 8.06296528192517 3.5222943667364643 -19.2548772092671 0.04886310268938356 10.36102279138184 0.029908148733021007 -5.582600769992197 -15.657738102765004 3.156446975884041 0.016870978972844907 -0.0333373401397332 -0.03221145622705629 -0.018475376877944514 4.692211394006991 0.013331348460282002 12.491231392147116 -8.242078346861026 6.9256945963146865 0.03851239238643955 46.42644988786368 -0.040047377568643065 -4.35940834563595 -14.768362321357248 -3.796427655994947 0.01621087602393807 -0.00866619763847621 0.022588619512993603 0.012992867450514456 -10.770300825757966 -0.03734477842480551 
0.04856901168151646 -0.0011473541774762 -0.036443043952426236 -0.02103468938357133 0.019341392922645223 0.012886644153060857 -2.184324711783416 4.070928519669897 -1.0144857023528244 -0.9052528691403908 3.809381704053153 0.38022978799619694 -0.8676999857686919 -0.33682818390567104 -0.9830802191151635 0.5522789160871168 0.3970320448984256 -0.8098392910728316 -0.35139821558494494 11.052909016066637 -0.8215195606688479 -0.09015023108296777 -0.9696774140421199 -3.3251102064125435 0.2206800118117611 -15.818005662702696 -0.2946113965518943 0.7937024516365878 0.33385360046372853 -14.302702222501798 64.79154458483922 4.589923942516313 12.012690303604101 31.87564972915335 -2.3724610506230985 92.52644207054227 16.12010529065252 -0.2600484378992384 -5.593349794809191 4.553070160778819 -0.12298313171826307 -1.5818860134980053 0.03143681304208732 0.009613150543277679 -56.216951271600614 0.016762120976122247 -0.03521824772784217 -56.21131868583553 -38.726363698241144 0.011791708629918013 -0.03695675023808494 -0.012025410765287 0.0325452554474518 -0.01080552553214322 0.030905949910298235 -0.037370286629374735 -0.02969216904800892 -36.721678209366964 0.042831716916532106 -0.03703418990232972 -0.012154033053731354 0.00010797482027151311 0.029237424466208965 0.030252531842843038 -0.0011271173096397964 -0.018715279620554342 -19.714308137454747 0.0026773481154549047 0.018028255447491884 -0.04230265845592382 0.0022768155253317522 0.028365862725638135 -0.02087976265260724 -0.011657964412341406 0.033685261190686634 24.02674647240692 -0.048914675137306074 0.01734856752690297 28.83360363599394 0.028515464264858053 0.02319270058620626 28.855513949682862 -0.01756879951869321 -0.035096798266806666 1.1701993557878008 0.7388690513551905 12.548321794101707 -59.494458697393036 27.134600872434888 -21.27822286057023 -2.6021676037214934 3.8761333863095793 -78.16509101111812 -13.927027563188604 4.666310902493595 -2.741340724802367 -0.45831757289668784 0.0804707590080894 -8.096391224245293 0.01747367024900765 -0.023501165611819363 44.59393898911451 0.013254419204034152 0.0346782788119874 44.586097001363115 12.453630354592377 0.016117121604858953 -0.006967300424437399 -0.049378068519534836 0.04637909876697731 -0.035761228115802304 -0.033517722180973396 0.0038762550962586884 0.01746435317756247 11.120738755753532 0.0430898054223616 -0.012613032721828394 0.007772174222675992 0.008098170915003935 0.008446947888041801 0.02326807852412433 -0.01453902169960121 0.040915625635531305 4.726338834536502 0.03306881504715434 -0.045393242305153805 -0.03685855681408452 0.029244827460889196 -0.0009744654257764152 -0.03438105450751029 -0.014101901153302033 -0.005768083384644782 -5.611472983863559 -0.015852690285365897 0.03927266936464738 -6.769948455058892 0.007281931453177569 -0.0024800232107456003 -6.75323051226218 0.03730556732867155 -0.01640645856915889 0.008517341941730245 0.03595933988349138 0.049926830375155926 8.083030791602296 3.5052215325298635 -19.20925295120214 0.03973137515756916 10.358446098885105 0.0013182952000629078 -5.5893608841683875 -15.643774938420743 3.214694232211097 0.023183934240161675 0.046047848103950795 0.04976735832569921 0.03177124537607384 4.729184790318786 -0.005578088621305521 12.448482044194265 -8.25637988761315 6.904121246579464 0.03633355027112577 46.355369857345586 -0.02053953359267274 -4.322017678687947 -14.74168415409632 -3.831376005240038 0.0030503485918593224 0.031188723446822993 0.0243976826302906 -0.018222467648026378 -10.741327109208141 0.005850453561189353 
-0.02180003225403282 -0.021102752304216963 0.018415807745612266 0.004026361569106459 -0.01863597339414404 -0.02281235445106673 -2.3015503343222043 4.245813993826331 -1.000330663218738 -0.8664242279098551 3.783597859842252 0.3626972905743228 -0.942452788023016 -0.31984973468662004 -1.0480332693557912 0.6064017393503711 0.46578040722777403 -0.8271559112935106 -0.3597422626328829 10.957063925198655 -0.7901428602209961 -0.10163238544831436 -0.9973141767604691 -3.431422277680532 0.2588358966496144 -15.844893036154328 -0.20686299864375957 1.0860861098789314 0.2717108758847183 -14.18996626168046 64.13357261093813 4.9805467689222604 12.894399280243098 32.798924055191925 -1.9799753283541401 92.41286144356799 16.644568551398834 -0.29466160479332876 -6.051740300387528 4.498591080179848 -0.10813669517561442 -1.571384200097834 0.005982215027593407 -0.023301225640909674 -56.279847780693856 0.008064609888646388 -0.014417592659975604 -56.19807155761656 -38.76932813479664 0.01205994036325688 -0.02409168540155991 0.04723645988645629 -0.002225925654310482 -0.020780687384500847 -0.01951407655316859 -0.023426230318351622 -0.007716242560770426 -36.71990447825353 -0.02402320055329001 0.005231802766188374 0.030866736578227555 -0.039328518826403286 -0.016375983244488336 0.003205377049817179 0.0022431414945485078 0.03495721645423435 -19.76463202076573 -0.0038000461907457548 0.03972437587432064 0.04074316302326709 0.006699954502486677 0.0091149619619724 -0.007192585675112089 0.026114278863899425 0.03549358419277773 24.073140153054684 0.007665395125837378 -0.009120450924153872 28.87748281943188 -0.03920440089146008 -0.03518053970464673 28.821255304045362 0.03711257965126406 0.019505950782408833 1.0180473003370636 0.7055712825911876 12.423437985556596 -58.38122821739756 27.79387027987455 -22.5870293433597 -0.46817713335341427 2.920070095513708 -78.79851522818468 -13.931454107188397 5.00052033552968 -3.149838953348191 -0.49583833042552583 0.10902771819770128 -8.15221413833222 -0.026590219165939573 -0.04181899237532009 44.55375851593468 -0.025641475941355824 -0.028340275888838203 44.54375581739187 12.470076075472456 0.024539989294106196 -0.04420034669903629 0.007245889132705973 0.015586621091200306 0.049895343536286746 0.044813235003260884 -0.03743251223148701 0.036028395090438904 11.075543425270604 0.049212161384407975 -0.04000321679332723 0.04587492218042985 -0.04760606727749561 0.04369959759333632 0.014651797718267521 0.025349369563199543 0.012873409123635375 4.755430639829162 0.021296427624280627 0.014802142378127386 -0.02062984692258275 0.03463101721988742 -0.007874172654745788 0.03489170055020275 0.04419428498961103 -0.009389600782486254 -5.6053639875671095 0.035607968388206256 0.03955026834055614 -6.7100292919120905 -0.04240204604388294 -0.026688162262789267 -6.7258604982725725 -0.015622154908261635 -0.027309478010416353 0.0011061345471806065 0.011383888751437119 -0.00755701448834034 8.077649626238536 3.513423374661594 -19.228514188789543 0.04211025132134997 10.350543963311669 0.015785225810720477 -5.621758319303352 -15.696377418504534 3.164137472075447 -0.039597209091026674 0.01531072600321733 0.02002431993961787 -0.02851937213038539 4.673053614343394 -0.03952340829156074 12.492239232808148 -8.221608639533644 6.913256075486961 0.012357854463367507 46.359979290967345 -0.012114864257159462 -4.318842098284159 -14.787432965402767 -3.850274269691567 -0.010754183893729988 -0.007707845232698615 0.04701002695103562 0.02966977017295021 -10.768390561093154 -0.0021247416986250136 
